# xmcd
#
# Track frame offsets: 
#        150
#        17422
#        36641
#        61473
#        81672
#        101403
#        127055
#        152557
#        175465
#        198453
#
# Disc length: 2941 seconds
#
# Revision: 0
# Processed by: cddbd v1.5.2PL0 Copyright (c) Steve Scherf et al.
# Submitted via: ExactAudioCopyFreeDBPlugin 1.0
#
DISCID=8b0b7b0a
DTITLE=Ngoc Anh - Mua thu giau em
DYEAR=1900
DGENRE=
TTITLE0=Mua thu va em
TTITLE1=Mua thu giau em
TTITLE2=Phuc am buon
TTITLE3=Giao duong im bong
TTITLE4=Thu ca
TTITLE5=Chiec la cuoi cung
TTITLE6=Ngon nen
TTITLE7=Nua hon thuong dau
TTITLE8=Gop la mua xuan
TTITLE9=Hoai cam
EXTD=
EXTT0=
EXTT1=
EXTT2=
EXTT3=
EXTT4=
EXTT5=
EXTT6=
EXTT7=
EXTT8=
EXTT9=
PLAYORDER=
